# xmcd CD database file
#
# Track frame offsets:
#	150
#	10635
#	22078
#	33119
#	45180
#	55078
#	65064
#	75268
#	86891
#	97964
#	110435
#	121019
#	132736
#	144820
#	154222
#	162882
#	172936
#	180928
#	193576
#	202929
#
# Disc length: 2847 seconds
#
# Revision: 3
# Processed by: cddbd v1.5.2PL0 Copyright (c) Steve Scherf et al.
# Submitted via: Feurio! 1.68 - http://www.feurio.com
#
DISCID=ee0b1d14
DTITLE=Various Artist - Rhythm and Blues - Original Masters - CD 4
DYEAR=2005
DGENRE=R&B
TTITLE0=Elmo Nixon - Forgive Me Baby
TTITLE1=Doc Gaddy - Evil Man Blues
TTITLE2=Earl Williams - Let's Make Love Tonight
TTITLE3=L.C.Williams - Shout Baby Shout
TTITLE4=King Perry - Come Back Baby
TTITLE5=Ch.Williams - So Worried
TTITLE6=J.L.Smith - If It's Too Late
TTITLE7=Homesick James - Set A Date
TTITLE8=Johnnie Fuller - No More
TTITLE9=Nat Cool Cat - Come By Here
TTITLE10=B.B.Brown - I Weep
TTITLE11=Elton Anderson - I Love You
TTITLE12=Harmonica Fats - My Baby Didn't Come Home
TTITLE13=Billy Gayles - Do Right Baby
TTITLE14=Hank Moore - Knock Kneed Rooster
TTITLE15=Baby Curtis - I Wanna
TTITLE16=Charles Sheffield - It's Voodoo Working
TTITLE17=Charles Walker - You Know It Ain't Right
TTITLE18=Garland - Hello Miss Sims
TTITLE19=Danny Taylor - You Look Bad
EXTD=
EXTT0=
EXTT1=
EXTT2=
EXTT3=
EXTT4=
EXTT5=
EXTT6=
EXTT7=
EXTT8=
EXTT9=
EXTT10=
EXTT11=
EXTT12=
EXTT13=
EXTT14=
EXTT15=
EXTT16=
EXTT17=
EXTT18=
EXTT19=
PLAYORDER=
